<svg version="1.2" xmlns="http://www.w3.org/2000/svg" viewBox="0 0 4000 4000" width="300" height="300">
	<title>20830248_4200_7_04-ai</title>
	<style>
		.s0 { fill: #ed1821 } 
		.s1 { fill: #ffffff } 
		.s2 { fill: #000072 } 
		.s3 { fill: #ffd8cc } 
		.s4 { fill: #f44906 } 
	</style>
	<g id="Layer 1">
		<g id="&lt;Group&gt;">
			<g id="&lt;Group&gt;">
				<g id="&lt;Group&gt;">
					<g id="&lt;Group&gt;">
						<path id="&lt;Path&gt;" class="s0" d="m2046.2 556.8v133l-39.3 32.6-140.8 116.9c-51.9-14.4-98.6-30.2-131.4-49.6-19.7-11.6-27.7-36.5-17.9-57.1 13.6-28.8 43.9-44.5 81-37.9-32.4-106.2 15.1-166.8 92.3-121.5 9.8 5.7 20 13.2 30.7 22.4 13.1-56.9 54.4-88.9 91.6-81.3 19.8 4.1 33.8 22.2 33.8 42.5z"/>
					</g>
					<g id="&lt;Group&gt;">
						<path id="&lt;Path&gt;" class="s1" d="m2046.2 556.8v133l-39.3 32.6-140.8 116.9q-8.6-2.4-17-4.8l118.5-98.5 39.3-32.6v-132.9c0-20.4-13.9-38.4-33.8-42.5-3.5-0.7-7.1-1-10.7-1 15.5-11.4 33.2-16.1 50-12.7 19.8 4.1 33.8 22.2 33.8 42.5z"/>
					</g>
					<g id="&lt;Group&gt;" style="opacity: .2">
						<g id="&lt;Group&gt;">
							<path id="&lt;Path&gt;" class="s2" d="m2006.9 722.4l-140.8 116.9c-51.9-14.4-98.6-30.2-131.4-49.6-19.7-11.6-27.7-36.5-17.9-57.1 13.6-28.8 43.9-44.5 81-37.9-32.4-106.2 15.1-166.8 92.3-121.5-2.5 29.2 3.7 59.1 18.9 84.2 21 34.6 58.1 58.2 97.9 65z"/>
						</g>
					</g>
					<g id="&lt;Group&gt;">
						<path id="&lt;Compound Path&gt;" fill-rule="evenodd" class="s2" d="m1866.1 857.5q-2.5 0-4.9-0.6c-63.5-17.7-105.4-33.6-135.8-51.6-27.7-16.4-38.7-51.7-25.1-80.5 14.1-29.6 41.1-47.4 73.7-49.6-11.9-57.6-0.6-104.2 31.3-124.8 28.3-18.4 66.1-12.8 106.1 14.8 20.5-48.8 62.2-77.4 104.6-68.7 28.1 5.8 48.4 31.1 48.4 60.3v133c0 5.4-2.4 10.5-6.6 14l-180.1 149.5c-3.3 2.8-7.4 4.2-11.6 4.2zm-84.8-146.1c-21.7 0-39.2 10.3-48.1 29-5.6 11.9-0.9 26.7 10.8 33.6 25.7 15.2 63.3 29.6 117.8 45.2l166.2-138v-124.4c0-12-8.1-22.3-19.3-24.6-25.6-5.3-58.9 18.5-70.2 67.5-1.4 6.2-6 11.3-12.1 13.2-6.1 2-12.8 0.6-17.6-3.6-34.1-29.6-65.4-40.2-83.7-28.3-17.9 11.5-27.8 49.5-9.9 108.4 1.8 6 0.4 12.6-3.8 17.4-4.2 4.7-10.6 6.9-16.8 5.8q-6.9-1.2-13.3-1.2zm264.9-21.6z"/>
					</g>
					<g id="&lt;Group&gt;">
						<path id="&lt;Path&gt;" class="s0" d="m2386.4 3229c-32 20.3-82 5.1-114.4-43.4-6.7 12.4-13.6 23-20.7 31.8-56.1 69.7-122.1 29.9-129.5-80.8-32.3 19.3-66.2 15.4-89.2-6.7-16.5-15.8-17.8-41.9-3.5-59.7 23.8-29.8 61.9-61.2 105.3-93.1l173.1 59.4 48.3 16.5 47.2 124.4c7.2 18.9 0.6 40.8-16.6 51.6z"/>
					</g>
					<g id="&lt;Group&gt;" style="opacity: .2">
						<g id="&lt;Group&gt;">
							<path id="&lt;Path&gt;" class="s2" d="m2239 3132c-5.3 28.8-0.4 59 12.3 85.4-56.1 69.7-122.1 29.9-129.5-80.8-32.3 19.3-66.2 15.4-89.2-6.7-16.5-15.8-17.8-41.9-3.5-59.7 23.8-29.8 61.9-61.2 105.3-93.1l173.1 59.4c-34.8 20.4-61.1 55.7-68.5 95.5z"/>
						</g>
					</g>
					<g id="&lt;Group&gt;">
						<path id="&lt;Compound Path&gt;" fill-rule="evenodd" class="s2" d="m2193.9 3270.3q-7 0.1-13.9-1.4c-37.1-8-64.2-47.6-73.5-105.6-31.3 9.4-62.8 2.5-86.5-20.2-23-22.1-25.2-59.1-5.1-84.3 22-27.5 55.5-57.3 108.7-96.3 4.8-3.6 11-4.5 16.7-2.6l221.4 75.9c5.1 1.8 9.2 5.7 11.1 10.8l47.2 124.3c10.4 27.3 0.4 58.2-23.8 73.5-36.6 23.2-85.7 11.2-122.2-27.1-23.7 34.4-51.8 53-80.1 53zm-72.1-151.9c2.9 0 5.8 0.7 8.5 2.1 5.6 2.9 9.3 8.6 9.7 14.9 4.1 61.4 26.9 93.4 47.7 97.8 21.4 4.7 46.9-16.4 68.2-56.2 3-5.7 8.8-9.3 15.2-9.6 6.4-0.3 12.4 2.7 16 8 27.9 41.8 67.5 52.3 89.6 38.2 9.6-6.1 13.5-18.6 9.3-29.8l-44.2-116.3-204.3-70c-45.5 33.9-75.5 60.7-94.1 84.1-8.5 10.6-7.7 26 1.9 35.2 17.8 17.1 42.9 18.6 67.2 4.2 2.8-1.8 6.1-2.6 9.3-2.6z"/>
					</g>
					<g id="&lt;Group&gt;">
						<path id="&lt;Path&gt;" class="s0" d="m2909.7 2737.8c-26.1 108.7-85.8 200.7-165.7 267.7-11 9.3-22.4 18.1-34.1 26.3-0.1 0-0.1 0.1-0.1 0.1-84.5 59.4-186.9 93.2-293.9 93.2-38.8 0-78.3-4.4-117.7-13.7-272.9-64.2-441.7-335.5-376.9-606.1 99-413.7 49.6-866.8-125.8-1154.3-108.8-178.4-92.8-397.2 23.3-556.1 38.6-53 88.5-99.3 148.5-135.3 82-49.1 172.5-72.6 261.9-72.7 172.1-0.2 340 86.4 435.6 243 161.7 265.1 267.6 588.9 306.2 936.3 35.5 319.8 14.3 655.7-61.3 971.6z"/>
					</g>
					<g id="&lt;Group&gt;" style="opacity: .5">
						<path id="&lt;Path&gt;" class="s1" d="m2909.7 2737.8c-26.1 108.7-85.8 200.7-165.7 267.7-11 9.3-22.4 18.1-34.1 26.3-0.1 0-0.1 0.1-0.1 0.1-84.5 59.4-186.9 93.2-293.9 93.2q-15.1 0-30.4-0.9c96.6-5.5 188.2-38.2 265-92.3 0.1 0 0.1-0.1 0.1-0.1 11.8-8.2 23.2-17 34.2-26.3 79.9-67 139.6-159 165.6-267.7 75.7-315.9 96.8-651.8 61.3-971.6-38.5-347.4-144.4-671.2-306.2-936.3-89.9-147.4-243.8-232.7-405.1-242.1 9.6-0.6 19.2-0.9 28.8-0.9 172.1-0.2 340 86.4 435.6 243 161.7 265.1 267.6 588.9 306.2 936.3 35.5 319.8 14.3 655.7-61.3 971.6z"/>
					</g>
					<g id="&lt;Group&gt;">
						<path id="&lt;Compound Path&gt;" fill-rule="evenodd" class="s2" d="m2415.9 3147.9c-41.2 0-82.5-4.8-122.9-14.3-138.7-32.6-256-117-330.3-237.6-73.6-119.3-96.2-259.9-63.6-396 97.7-408.1 49.4-854.5-123-1137.2-73.2-119.9-95.1-261-61.5-397.2 33.7-137 119.3-252.6 241-325.5 250.3-150.1 577.2-70.3 728.6 177.9 163.5 267.9 270.5 595 309.4 945.7 35.8 322.3 14.4 661-61.8 979.4-27.7 115.9-95.1 220-189.6 293.2-93.1 72-209 111.6-326.3 111.6zm-186.5-2538.1c-85.5 0-172.1 22.4-250.4 69.4-111.2 66.6-189.4 172.2-220.2 297.3-30.6 124.3-10.7 253.1 56.2 362.6 178.3 292.4 228.8 752.3 128.4 1171.5-29.7 124.2-9.1 252.6 58 361.5 68 110.2 175.2 187.3 302 217.2 37 8.7 74.9 13.1 112.5 13.1 225.6 0 419.5-152.1 471.6-369.9 75-313.4 96.1-646.6 60.8-963.8-38.2-344.1-143-664.7-303-926.9-91-149.3-251.6-232-415.9-232z"/>
					</g>
					<g id="&lt;Group&gt;">
						<path id="&lt;Path&gt;" class="s2" d="m2153.9 1264.3c-42.9 11.7-89.2-21-103.5-73-8.1-29.8-4.1-59.4 8.8-81.5l123.2-5.3c10.4 12 18.6 27 23.3 44.1 14.3 52.1-8.9 103.9-51.8 115.7z"/>
					</g>
					<g id="&lt;Group&gt;">
						<path id="&lt;Path&gt;" class="s2" d="m2011.1 1130.1c-9.7 0-17.8-7.6-18.2-17.4-0.4-10.1 7.3-18.6 17.4-19l175.4-7.6c10-0.4 18.5 7.3 19 17.4 0.4 10-7.3 18.6-17.4 19l-4.1 0.2-171.3 7.4q-0.4 0-0.8 0z"/>
					</g>
					<g id="&lt;Group&gt;">
						<path id="&lt;Path&gt;" class="s1" d="m2176.3 1154.7c1.7 12.6-4.4 23.9-13.6 25.1-9.2 1.2-18-8.1-19.7-20.7-1.7-12.6 4.4-23.8 13.6-25.1 9.2-1.2 18 8.1 19.7 20.7z"/>
					</g>
					<g id="&lt;Group&gt;">
						<path id="&lt;Path&gt;" class="s2" d="m2426.3 1050.5c-10.6-11.3-18-24.2-22.2-37.4l60.1-89c22.4 0.5 46.2 11 64.6 30.6 32.1 34.4 35.2 83.7 6.9 110.2-28.3 26.4-77.3 20-109.5-14.4z"/>
					</g>
					<g id="&lt;Group&gt;">
						<path id="&lt;Path&gt;" class="s2" d="m2402.1 1034.3c-3.5 0-7.1-1-10.2-3.2-8.4-5.6-10.5-16.9-4.9-25.3l85.7-126.7c5.6-8.3 16.9-10.5 25.3-4.9 8.3 5.7 10.5 17 4.9 25.3l-85.7 126.8c-3.5 5.2-9.3 8-15.1 8z"/>
					</g>
					<g id="&lt;Group&gt;">
						<path id="&lt;Path&gt;" class="s1" d="m2440.4 997.9c5.1-6.3 16.2-5.7 24.8 1.3 8.6 7 11.5 17.8 6.4 24.1-5.1 6.2-16.3 5.6-24.9-1.4-8.6-7-11.4-17.7-6.3-24z"/>
					</g>
					<g id="&lt;Group&gt;">
						<g id="&lt;Group&gt;">
							<path id="&lt;Path&gt;" class="s2" d="m2387.5 1379.6c-17.1 0-34.5-3.9-51.8-11.8-8.6-3.8-12.4-13.9-8.5-22.5 3.9-8.5 13.9-12.3 22.5-8.5 28.4 12.9 55.6 11.5 80.9-4 39.2-24.2 68.2-81.4 70.6-139 0.3-9.4 8.2-16.7 17.7-16.3 9.3 0.4 16.7 8.3 16.3 17.7-2.8 69.4-37.7 136.3-86.7 166.5-19.4 12-40 17.9-61 17.9z"/>
						</g>
						<g id="&lt;Group&gt;">
							<path id="&lt;Path&gt;" class="s2" d="m2453.9 1207.6c5.2-9.8 13.7-18 23.8-23.5 10.1-5.6 21.9-8.5 33.8-8.5 11.8 0 24 3.3 34.2 10.2 10 6.9 17.9 17.6 19.4 29.3 0.5 3.2-1.8 6.2-5 6.6-1.6 0.2-3.1-0.2-4.3-1.1l-0.4-0.3c-7.8-5.8-14.7-9.6-22-12.2-7.3-2.6-14.9-4.2-22.8-4.8-7.9-0.5-16 0.2-24.3 2.1-8.2 1.8-16.5 4.9-25.3 9.2l-0.2 0.1c-2.6 1.2-5.7 0.1-7-2.4-0.7-1.6-0.6-3.3 0.1-4.7z"/>
						</g>
					</g>
					<g id="&lt;Group&gt;" style="opacity: .2">
						<g id="&lt;Group&gt;">
							<path id="&lt;Path&gt;" class="s2" d="m2978.5 1939.5q-0.2 4.5-0.3 9.1c0 0.7-1.1 0.7-1.2 0q-0.1-4.6-0.2-9.1c-0.1-1.1 1.7-1.1 1.7 0z"/>
						</g>
					</g>
					<g id="&lt;Group&gt;">
						<g id="&lt;Group&gt;" style="opacity: .2">
							<g id="&lt;Group&gt;">
								<path id="&lt;Path&gt;" class="s2" d="m2973.5 1946.3c-13.2-30.3-33.8-57.5-60.1-77.6-45.5-34.9-106.7-48.2-162.6-35.5-9 2.1-18.4 5.2-24.3 12.3-6.7 8.2-7.1 19.6-8.3 30.1-10.5 91.5-116.1 158.8-203.5 129.7-12.1-4-24-9.6-36.7-10.8-23.2-2.2-45 10.3-65.4 21.6-23.7 13.2-48.1 25.3-72.9 36.3-100.3 44.3-170.5 136.7-185.4 245.3-6.5 47.4-14.7 94.6-24.6 141.3-56.6 266.6 90.9 533.9 329.3 597.2 34.5 9.1 68.9 13.5 102.8 13.5 63.9 0 125.9-15.6 182.2-44.2 12.9-6.5 25.5-13.6 37.7-21.5-22.6 17.9-46.6 33.9-71.8 47.8-0.1 0-0.1 0.1-0.1 0.1-75.7 41.8-162.3 65-252 65-39.5 0-79.6-4.5-119.7-13.8-277.6-64.8-449.2-338.5-383.4-611.4 100.7-417.4 50.5-874.5-127.9-1164.5-99.9-162.4-96.4-357.9-8-512.3 38.6-53 88.5-99.3 148.5-135.3 82-49.1 172.5-72.6 261.9-72.7-20.2 9.4-40 20.6-59.3 33.6-209.7 141.8-276.9 446.8-150.1 681.2 96.9 179 149.7 423.1 153.6 681.4q222.2-114.7 444.4-229.5c100.2-51.7 216.4-104.7 321.5-63.7 8.4 3.2 17 7.5 21.5 15.3 3.6 6.3 3.9 13.9 4.1 21.2q2.2 93 0.8 186z"/>
							</g>
						</g>
						<g id="&lt;Group&gt;" style="opacity: .2">
							<g id="&lt;Group&gt;">
								<path id="&lt;Path&gt;" class="s2" d="m2973.5 1946.3l16.3 70.2c-0.9-24.2-6.6-48-16.3-70.2z"/>
							</g>
						</g>
					</g>
					<g id="&lt;Group&gt;" style="opacity: .2">
						<g id="&lt;Group&gt;">
							<path id="&lt;Path&gt;" class="s2" d="m2841.8 1162.8c50.9 20.3 73.8 79 84.9 132.7 11.8 56.9 16.6 115.8 7.7 173.2-8.9 57.4-32 113.4-71 156.5-54.8 60.6-135 90.5-212.2 117.3-18.4-26.3-38.4-51.6-59.7-75.6 82.4-37 139.8-112.8 189.5-188.1 29.4-44.6 57.7-90.7 73.3-141.8 15.5-51.1 17.2-108.2-5.8-156.5"/>
						</g>
					</g>
					<g id="&lt;Group&gt;" style="opacity: .2">
						<path id="&lt;Path&gt;" class="s2" d="m2279.8 2406.2c-19.9-1.5-33.8-33.2-30.9-70.9 2.8-37.6 21.2-66.9 41.2-65.4 19.9 1.5 33.8 33.2 31 70.9-2.9 37.6-21.3 66.9-41.3 65.4z"/>
					</g>
					<g id="&lt;Group&gt;" style="opacity: .2">
						<path id="&lt;Path&gt;" class="s2" d="m2219.6 2637.6c-30.1-2.2-51-50-46.7-106.7 4.2-56.6 32-100.8 62-98.5 30.1 2.2 51 50 46.7 106.7-4.2 56.6-32 100.8-62 98.5z"/>
					</g>
					<g id="&lt;Group&gt;" style="opacity: .2">
						<path id="&lt;Path&gt;" class="s2" d="m2318.2 2684.4c-11.4-0.9-19.4-19.1-17.8-40.7 1.6-21.6 12.2-38.5 23.7-37.6 11.5 0.8 19.4 19.1 17.8 40.7-1.6 21.6-12.2 38.4-23.7 37.6z"/>
					</g>
					<g id="&lt;Group&gt;">
						<g id="&lt;Group&gt;">
							<g id="&lt;Group&gt;">
								<g id="&lt;Group&gt;">
									<path id="&lt;Path&gt;" class="s3" d="m3095.7 1882.1c-18.7 78.4-53.6 145-108 188 0.4-98.6-5.7-201.3-17.1-307.5-100-19-188.9 7.2-261.7 65.2l-90-118.3c268.4-171.5 304.1-357.3 206.5-551.2 4.5 0 9 0.2 13.5 0.7 186.5 19.7 323.6 444.6 256.8 723.1z"/>
								</g>
								<g id="&lt;Group&gt;">
									<path id="&lt;Path&gt;" class="s4" d="m2634 1699.7c73.6-44.2 134.1-105.9 187.1-177.8 87.2-20.4 183.4-30.4 274.9 29.5q25.3 100.2 16.9 200.5c-119.8-109.2-283.4-95.8-425.1-5.9z"/>
								</g>
								<g id="&lt;Group&gt;">
									<path id="&lt;Path&gt;" class="s4" d="m3080.4 1483.2c-52.7-63.1-135-68.3-217.8-51.4 11.1-21.5 16.4-44.9 18.2-69.4 9.4-70.5-12.5-138.2-55.4-204.1 86.5 7.6 157.6 75.6 213.1 204.1 20.8 36.7 34 77.4 41.9 120.8z"/>
								</g>
								<g id="&lt;Group&gt;" style="opacity: .6">
									<g id="&lt;Group&gt;">
										<path id="&lt;Path&gt;" class="s1" d="m2620.6 1711.8l-1.7-2.3c18.7-11.9 36.3-24 52.8-36.1-15.8 12.9-32.8 25.7-51.1 38.4z"/>
									</g>
									<g id="&lt;Group&gt;">
										<path id="&lt;Path&gt;" class="s1" d="m3095.7 1882.1c-18.7 78.4-53.6 145-108 188 0-2 0-4 0-6 36.2-41.2 60.9-95.5 75.6-156.9 62.5-260.8-53.8-650.1-222-714.6q-7.3-17.1-15.9-34.3c4.5 0 9 0.2 13.5 0.7 186.5 19.7 323.6 444.6 256.8 723.1z"/>
									</g>
								</g>
								<g id="&lt;Group&gt;">
									<path id="&lt;Compound Path&gt;" fill-rule="evenodd" class="s2" d="m2987.7 2088.3c-2.7 0-5.5-0.6-8-1.9-6.3-3-10.3-9.4-10.2-16.4 0.4-89.9-4.9-187.9-15.6-291.7-84.7-12.7-165.3 9.3-233.7 63.8-3.8 3.1-8.7 4.5-13.6 3.8-4.9-0.6-9.3-3.1-12.3-7l-89.9-118.3c-3.1-4.1-4.3-9.2-3.4-14.2 0.9-5.1 3.8-9.5 8.1-12.2 240.4-153.7 303.9-321.4 200-527.7-2.9-5.7-2.6-12.4 0.7-17.8 3.4-5.3 9.2-8.6 15.6-8.6 98.8 0 193.5 102.7 253.2 274.9 80.1 230.9 79.4 544-79.6 669.4-3.3 2.5-7.3 3.9-11.3 3.9zm-80.4-350c21.9 0 44.2 2.1 66.7 6.4 7.9 1.5 13.8 8 14.7 16 10.1 94.2 15.8 183.9 17 267.4 60.6-68.1 80.9-168.1 86.8-244.7 8.7-113-8.9-242.9-48.3-356.5-46.9-135-116.9-225.4-188.1-245.9 40.8 94.6 47.8 184.3 20.6 267-31.7 96.6-107.5 183.8-231.4 266.1l67 88.2c58.9-42.3 125.2-64 195-64z"/>
								</g>
								<g id="&lt;Group&gt;">
									<path id="&lt;Path&gt;" class="s2" d="m2975 1745c8.9 3.1 18.3 6.6 27.6 11.1 9.3 4.5 18.7 10.1 26.8 18.1 8.1 7.8 14.4 18.5 16.6 29.6 2.3 11.1 1.1 21.8-1.2 31.5-1 4.1-5 6.6-9 5.6-3.6-0.8-5.9-4.1-5.8-7.6v-0.4c0.3-8.5-0.5-16.6-3.5-23.3-2.9-6.7-7.6-11.8-13.6-15.7-6.1-4-13.5-6.7-21.4-8.8-7.9-2.1-16.4-3.5-25.4-4.8-10-1.5-16.9-10.8-15.4-20.8 1.5-10 10.8-16.9 20.8-15.4q1.7 0.2 3.4 0.8z"/>
								</g>
								<g id="&lt;Group&gt;" style="opacity: .3">
									<g id="&lt;Group&gt;">
										<path id="&lt;Path&gt;" class="s2" d="m3066.5 1942.9c-1.3 13-4.4 29.1-11.4 46.5-18.1 44.8-51.3 70-67.4 80.7 0.4-98.6-5.7-201.3-17.1-307.5-100-19-188.9 7.2-261.7 65.2l-90-118.3c268.4-171.5 304.1-357.3 206.5-551.2 4.5 0 9 0.2 13.5 0.7 10 11 17.2 24.7 24 38.1 25.9 51.8 48.3 105.9 58.5 162.9 10.1 57 7.3 117.4-15.8 170.5-13.2 30.4-33.3 60.9-28 93.6 5.4 33.2 38.8 53.2 70.2 74.1 47.8 31.8 64.5 23.9 91.3 52.2 26.6 28 34.1 60.8 37.6 76.3 12.2 53.3-2.7 97.5-10.2 116.2z"/>
									</g>
								</g>
							</g>
							<g id="&lt;Group&gt;">
								<g id="&lt;Group&gt;">
									<path id="&lt;Path&gt;" class="s4" d="m1930.4 2465.2c-44.3 169.7-24.8 328.6 88.9 471.4-7.5 9.4-15.7 17.9-24.4 25.6-83.1 73.4-217.7 73.7-349 28.1-177.6-47.1-279.4-227.8-479.8-203.5-42.4 17.2-86.6 33.1-131.4 46.2-0.1 0-0.1 0.1-0.2 0.1-126.2 37.1-256.9 52.3-362.5 12.6-41-15.4-78.3-39.1-110-73-27-28.8-30.6-72.2-9.5-105.5 149-234.2 466.3-432.2 771.1-638.2 144.1-97.5 258.7-232.7 331.5-390.7 55.3-120 103.5-222.3 182.2-211 43.8 90.7 75.4 185.8 96.6 284.5 118.4 19.7 264.3 28.7 418.3 12.9 14.5-1.5 29.2-3.2 43.9-5.2l9 212.3c-78.3 48.7-173.9 99-287 141.3-51.3 19.2-100.5 34.6-147 47.1 0 0.2 0 0.5 0 0.7-0.9 17.9-2.4 44.1-4.9 75.7-10.2 127.3-12.9 180.6-35.8 268.6z"/>
								</g>
								<g id="&lt;Group&gt;">
									<path id="&lt;Path&gt;" class="s3" d="m902.5 2853.4c10.3-138.7 72.1-267.7 132.9-392.9 7.3-15.1 14.7-30.3 25.5-43.2 12-14.4 27.8-25.2 43.7-35.3 69.5-43.9 147.3-77.5 229.2-84.5-139.3 141.3-247.7 321.6-267.4 519.1-48.1 32.9-106.3 50.8-164.5 50.7"/>
								</g>
								<g id="&lt;Group&gt;">
									<path id="&lt;Path&gt;" class="s3" d="m1401.7 2856.4c-9.1-197.7 81-385.8 181.3-556.5 29.3-50 65.7-103.8 122.3-116.4 33.2-7.4 71.6-0.1 98.4-21-78.8 130.9-149.2 266.8-210.8 406.6-26.1 59.2-50.7 119.6-62.3 183.2-11.7 63.7-9.6 131.3 16.4 190.5q-75-37.1-150-74.2"/>
								</g>
								<g id="&lt;Group&gt;">
									<path id="&lt;Path&gt;" class="s3" d="m1732.8 3020.2c-19.1-93.8-3-192.5 32.9-281.3 35.9-88.9 90.9-168.7 151-243.4-18.1 66.2-16 137.7 5.8 202.8 2.7 7.9 5.6 15.8 6.1 24.2 0.8 12-3.7 23.7-8.3 34.8-32 78.1-74.8 161.4-51.4 242.5 1.2 4.1 2.5 8.8 0.3 12.5-2.3 3.7-7.3 4.6-11.7 5.1-43.1 4.8-86.7 5.8-130 3"/>
								</g>
								<g id="&lt;Group&gt;">
									<path id="&lt;Path&gt;" class="s3" d="m1417.2 1952c44.3-33.3 83.6-73.3 116.2-118.2 8.7-12 17.5-24.8 30.7-31.4 10.3-5 22-5.8 33.4-6.8 95.4-8.7 188.4-43.3 266.4-99.1 70.2 15.7 141.1 28.3 212.4 37.6-97.5 83.2-224.6 121.7-349 152.6-108.3 26.9-217.7 49.8-327.8 68.4"/>
								</g>
								<g id="&lt;Group&gt;">
									<path id="&lt;Path&gt;" class="s3" d="m676.6 2838.4c-48-11.2-101.3-26.2-126.2-68.8-18.2-31.2-16.2-71.1-2.6-104.6 13.5-33.5 37.3-61.7 61.9-88.3 65.4-70.7 138.8-133.6 211.9-196.3 32.5-27.8 65.2-55.8 101.5-78.5 54-33.7 114.9-55 175.5-74.7 351.3-114.3 714.3-187.5 1072.3-278.5 73.5-18.6 152.5-41.8 197.5-102.7 10.8 29.1 17.7 59.7 20.3 90.7-103 64.9-212.6 119.5-326.5 162.6-286.7 108.4-597.6 143.1-882.7 255.9-96 37.9-188.5 84.6-276.1 139.3-62.8 39.1-124.1 83.3-168.8 142.3-44.8 59-71.6 134.9-58.1 207.7"/>
								</g>
								<g id="&lt;Group&gt;">
									<path id="&lt;Compound Path&gt;" fill-rule="evenodd" class="s2" d="m1815.8 3039.9c-53.8 0-113-10.6-175.2-32.2-74.8-20-136-62.2-195.2-103-84.1-57.9-163.6-112.7-274.8-100.1-124 50.1-235.1 77.8-330.4 82.2-124.9 5.7-223-28.5-291.6-101.7-32.4-34.7-37.2-87.2-11.5-127.6 136.2-214.1 402.8-393 685.1-582.3 30.4-20.4 60.8-40.8 91.2-61.3 141.1-95.5 253.6-228 325.2-383.3 55.6-120.6 108.2-234.6 201.2-221.3 6 0.8 11.2 4.6 13.9 10.1 41.3 85.5 73.4 178.5 95.4 276.4 104.5 16.4 263 29.7 444.6 5.7 5-0.7 10.2 0.8 14.1 4.1 3.9 3.2 6.2 8 6.5 13.1l9.1 212.4c0.2 6.6-3 12.8-8.6 16.2-91.9 57.1-189.6 105.2-290.2 142.8-44.5 16.7-90.1 31.5-136 44.2-1.1 21.2-2.5 42.6-4.2 63.7l-2.5 31c-8.3 105.7-12.5 158.8-33.9 240.8-46 176.4-18 325.3 85.5 455.5 5.3 6.7 5.3 16.1 0 22.8-48.8 60.6-125.3 91.8-217.7 91.8zm-613.4-273.6c106.3 0 186.2 55 263.7 108.4 56.8 39.2 115.6 79.7 184.5 97.9q0.7 0.2 1.3 0.4c147.1 51.2 274.2 37.2 343.8-37-103.5-136.9-130.6-292.5-83-475.4 20.6-78.9 24.5-127.6 32.9-234.5l2.4-31c2.1-25.2 3.7-50.7 4.9-75.7 0.4-8 5.8-14.7 13.5-16.8 49-13.1 97.9-28.8 145.4-46.6 95.1-35.6 187.5-80.7 274.7-134l-7.8-181.9c-184.9 22-344.8 6.8-447.8-10.3-7.4-1.3-13.2-6.9-14.8-14.2-20.6-95.9-51.1-187-90.7-270.9-61.4 0.9-106.3 98.3-153.7 201.2-74.4 161.3-191.2 299-337.9 398.2-30.4 20.5-60.9 40.9-91.3 61.3-279 187.2-542.6 364-674.6 571.6-16.8 26.4-13.8 60.7 7.4 83.2 138.3 147.8 393.9 86.8 583.9 9.7q2.3-0.9 4.7-1.2c13.2-1.6 26-2.4 38.5-2.4z"/>
								</g>
								<g id="&lt;Group&gt;">
									<path id="&lt;Path&gt;" class="s2" d="m709.6 2875.6c-4.5 0-9-1.7-12.6-5-20.2-19.4-33.9-41.4-40.5-65.3-22.8-82.6 45.2-162.1 85.7-209.6 30.2-35.3 81.4-86.2 153.5-128.4 210.8-123.1 378.8-176.7 380.5-177.2 218.1-68.7 450.6-131.8 690.8-187.6 9.8-2.3 19.6 3.8 21.9 13.6 2.2 9.8-3.9 19.6-13.7 21.9-239.3 55.6-470.8 118.5-688.1 186.9-1.6 0.5-166 53-373 173.9-67.8 39.6-115.8 87.5-144.2 120.6-38.2 44.7-95.9 112.2-78.2 176.2 4.8 17.5 15.1 33.9 30.5 48.6 7.3 6.9 7.5 18.5 0.6 25.8-3.6 3.7-8.4 5.6-13.2 5.6z"/>
								</g>
								<g id="&lt;Group&gt;">
									<path id="&lt;Path&gt;" class="s2" d="m1931.5 1729.9c-17.2-3.3-34.4-7.9-50.9-14.9-16.5-7-32.4-16.5-45.8-29-13.4-12.3-24.1-27.6-31.2-43.9-7.1-16.4-10.8-33.7-12.4-50.8-0.4-4.5 2.9-8.4 7.4-8.8 4.2-0.4 7.9 2.4 8.7 6.5l0.1 0.1c3 15.5 8 30.4 15.3 43.6 7.5 13.1 17.4 24.4 29.2 33.2 23.6 17.7 53.8 25.3 84.4 27.8h0.1c10 0.9 17.5 9.7 16.7 19.7-0.9 10.1-9.7 17.5-19.7 16.7q-1-0.1-1.9-0.2z"/>
								</g>
								<g id="&lt;Group&gt;" style="opacity: .3">
									<g id="&lt;Group&gt;">
										<path id="&lt;Path&gt;" class="s2" d="m2392.2 1724.2c-8.1 10.6-20.8 25.3-38.7 39.9-66.5 54.4-145.1 58.9-250.4 61-228.8 4.6-228.4-11.1-282.7 4.4-87.4 25-154.6 92.6-223 152.3-136.8 119.3-293.6 215.6-462 283.6-33.4 13.4-70.2 28.5-86.2 60.7-16.1 32.2 9.5 82.8 44.2 73.2-130.2 48.3-220.3 112-275.1 157.4-125.9 104.5-138.5 173-141.2 191.3-7.5 52.1 6.6 96.7 18.4 124.1-41-15.3-78.3-39-110-73-27-28.8-30.7-72.2-9.5-105.4 148.9-234.2 466.3-432.3 771.1-638.3 144.1-97.5 258.7-232.7 331.5-390.7 55.3-120 103.5-222.2 182.1-211 19.5 40.6 39.1 87.1 56.9 139.3 16.1 47.4 28.1 92 37.1 132.7 60.5 7.6 128.5 12.9 202.9 13.3 87.2 0.5 166-5.7 234.6-14.8z"/>
									</g>
								</g>
								<g id="&lt;Group&gt;" style="opacity: .3">
									<g id="&lt;Group&gt;">
										<path id="&lt;Path&gt;" class="s2" d="m1034.5 2833.1c0.1 0 0.1-0.1 0.2-0.1-0.2 0.1-0.3 0.2-0.4 0.3 0.1-0.1 0.2-0.2 0.2-0.2z"/>
									</g>
								</g>
								<g id="&lt;Group&gt;" style="opacity: .3">
									<g id="&lt;Group&gt;">
										<path id="&lt;Path&gt;" class="s2" d="m2019.3 2890.1c-7.5 8.9-15.7 16.9-24.4 24.1-93.6 48.9-207.6 63.5-310.7 36-84-22.3-158-69.4-228.1-118.4-66-46.2-135.7-96.9-217.7-101.1-27.1-1.5-53.6 2.3-79.5 9.3-25.7 7-47.1-20.2-33.8-43.2 15.1-26 27-54 36.7-82 24.1-69.4 37.9-142.4 71.4-208.2 33.4-65.9 92.2-126.2 168.5-138.5l-63.9 8.2q316.7-78.1 633.3-156.1c-0.9 16.9-2.4 41.7-4.9 71.4-10.2 120.2-12.9 170.5-35.8 253.6-44.3 160.1-24.8 310.1 88.9 444.9z"/>
									</g>
								</g>
							</g>
						</g>
						<g id="&lt;Group&gt;">
							<g id="&lt;Group&gt;">
								<path id="&lt;Path&gt;" class="s4" d="m2701.2 1768c-24.3 69-53.4 122.9-87.8 159.9-44 47.5-96.8 67.4-159.7 55.6-116.5-43-118.9-161.8-68.1-247.8 62.4-105.6 205.1-161.9 315.6 32.3 0 0 0 0 0 0z"/>
							</g>
							<g id="&lt;Group&gt;" style="opacity: .6">
								<path id="&lt;Path&gt;" class="s1" d="m2355.2 1864.5c-5-42.8 7-89.3 30.4-128.8 62.4-105.6 205.1-161.9 315.6 32.3 0 0 0 0 0 0q-4.5 12.7-9.1 24.6c-109.1-175.8-245.8-119.8-306.5-17-16.2 27.5-27 58.3-30.4 88.9z"/>
							</g>
							<g id="&lt;Group&gt;">
								<path id="&lt;Compound Path&gt;" fill-rule="evenodd" class="s2" d="m2488.4 2005q-18.5 0-38-3.6-1.5-0.3-3-0.8c-75.6-27.9-116.2-89.2-111.2-168.2 6.1-96.8 77.2-187.9 161.9-207.5 47.1-10.8 138.2-7.9 218.9 134.2 2.6 4.5 3.1 10 1.4 15-54.2 153.5-131.4 230.9-230 230.9zm-29.8-39.1c95.5 17 168.4-47.1 222.6-196-50.5-85.1-112.3-123.9-174.9-109.5-68.7 15.9-128.7 94.1-133.7 174.3-2.3 36.1 5.9 100.9 86 131.2z"/>
							</g>
							<g id="&lt;Group&gt;">
								<path id="&lt;Path&gt;" class="s4" d="m2730.7 1876.5c-15.4 77.3-55.4 127.4-108.3 144.8-48.3 15.9-107.5 4.7-168.7-37.8 48.8 5.2 92.9-11.2 96.8-50.3 1.1-10.6-3.5-20.9-11.4-28.2-25.2-23-38.8-51.1-42.4-78.6-6-44.7 14-87.9 52.1-105.1q7.9-3.6 16.8-5.6c31-6.7 70.7 1.7 116.1 34.8 7.2 5.1 13.7 11.1 19.5 17.5 0 0 0 0 0 0 26 29.1 37.4 69.2 29.5 108.5z"/>
							</g>
							<g id="&lt;Group&gt;" style="opacity: .6">
								<g id="&lt;Group&gt;">
									<path id="&lt;Path&gt;" class="s1" d="m2730.7 1876.5c-8.7 43.6-25.2 78.5-47.4 103.8 11.6-20.7 20.5-45.2 26.2-73.4 7.8-39.3-3.5-79.5-29.6-108.5 0 0 0 0 0 0-5.8-6.5-12.3-12.4-19.5-17.6-45.4-33-85.1-41.5-116-34.7q-9 2-16.9 5.6c-8.6 3.9-16.2 9.1-22.9 15.4 8.9-20.2 24-36.7 44.2-45.8q7.9-3.6 16.8-5.6c31-6.7 70.7 1.7 116.1 34.8 7.2 5.1 13.7 11.1 19.5 17.5 0 0 0 0 0 0 26 29.1 37.4 69.2 29.5 108.5z"/>
								</g>
							</g>
							<g id="&lt;Group&gt;">
								<path id="&lt;Compound Path&gt;" fill-rule="evenodd" class="s2" d="m2578.4 2046.4c-43 0-89.3-16.2-135-47.9-6.9-4.8-9.6-13.6-6.7-21.4 2.9-7.8 10.7-12.6 19-11.7 27.3 2.9 51.6-1.9 65.2-12.9 6.9-5.6 10.7-12.5 11.5-21.1 0.5-4.5-1.6-9.3-5.6-12.9-62.3-56.9-60.7-138.7-23.1-184.8 32-39.1 100.5-62.1 188.7 2 45.1 32.8 67.2 89.5 56.2 144.3-15.4 77.4-55 132.5-111.3 155.2-18.6 7.5-38.4 11.2-58.9 11.2zm-64-50.1c39.4 16.2 77.1 18.1 109.3 5.1 44.5-18 76.2-63.6 89.2-128.5 8.2-41-8.3-83.3-41.9-107.7-56.5-41.1-109.8-44.3-139-8.5-26.9 33-27 92.5 19.4 134.9 12.4 11.3 18.9 27.5 17.3 43.4-1.8 18.3-10.4 34.1-24.9 45.8-8.1 6.6-18.1 11.8-29.4 15.5z"/>
							</g>
							<g id="&lt;Group&gt;">
								<path id="&lt;Path&gt;" class="s2" d="m2535.1 1873.6q7.3 10.6 17.4 19.9c6.7 6.3 14.4 12.1 22.6 18 8.1 6 17 12.1 25.1 20.3 8.1 8.1 15 19.1 16.9 30.8 0.7 4.2-2.1 8.1-6.2 8.8-3.7 0.6-7.2-1.5-8.4-4.8l-0.1-0.2c-3-8-8.5-14-15.7-19.1-7.2-5.1-15.9-9.2-25-13.7-9.1-4.4-18.6-9.2-28-15.3-9.4-5.9-18.4-13.1-26.6-21.5l-0.1-0.1c-7.1-7.2-7-18.8 0.2-25.8 7.2-7.1 18.8-7 25.9 0.2 0.7 0.8 1.5 1.6 2 2.5z"/>
							</g>
							<g id="&lt;Group&gt;" style="opacity: .3">
								<g id="&lt;Group&gt;">
									<path id="&lt;Path&gt;" class="s2" d="m2631.7 2002.2c-1.6 6.9-4.9 13.4-9.3 19.1-48.3 15.9-107.5 4.7-168.7-37.8-116.5-43-118.9-161.8-68.1-247.8-6.2 22-4.8 46.3 5.1 66.9 10.2 21 29.7 37.7 52.4 43.1 18.9 4.6 41.6-0.2 52.1-16.6 0.5-0.9 1-1.8 1.5-2.7 6.7-12.9 5.5-28.8 7.8-43.4 4.1-25.9 21.4-49.1 44.3-61.7 6.2-3.4 12.8-6 19.7-7.7-1 0.7-1.9 1.4-2.9 2.1-31.1 24.1-37.1 70.3-30.2 109.6 3.5 19.9 9.9 39.8 22.3 55.7 11.1 14 26.3 24.2 40.6 34.8 5.2 3.8 10.3 7.8 15.1 12.1 8.6 7.7 16.3 16.3 21.3 26.7 7.3 15.1 7.4 34.8-3 47.6z"/>
								</g>
							</g>
						</g>
					</g>
				</g>
				<g id="&lt;Group&gt;" style="opacity: .2">
				</g>
			</g>
		</g>
	</g>
</svg>